<?xml version="1.0" encoding="utf-8"?>
<!-- Generator: Adobe Illustrator 16.0.0, SVG Export Plug-In . SVG Version: 6.00 Build 0)  -->
<!DOCTYPE svg PUBLIC "-//W3C//DTD SVG 1.1//EN" "http://www.w3.org/Graphics/SVG/1.1/DTD/svg11.dtd">
<svg version="1.1" id="Layer_1" xmlns="http://www.w3.org/2000/svg" xmlns:xlink="http://www.w3.org/1999/xlink" x="0px" y="0px"
	 width="960px" height="560px" viewBox="0 0 960 560" enable-background="new 0 0 960 560" xml:space="preserve">
<g>
	<path fill="#FFFFFF" d="M262.689,356.771c2.129-4.524,26.079-63.601,33.131-77.971h1.863c7.451,11.177,25.015,38.054,28.874,43.909
		c4.657-6.786,21.422-32.466,27.941-42.179h1.863c8.382,16.765,32.333,68.125,35.526,74.379l-25.015,10.111
		c-3.859-9.047-15.168-36.989-16.1-40.05c-1.463,2.129-16.632,23.552-25.68,35.394h-1.863c-9.314-13.04-21.821-31.401-23.684-34.729
		c-1.729,5.855-10.378,34.063-12.641,39.385L262.689,356.771z"/>
	<path fill="#FFFFFF" d="M393.212,353.178c3.593-5.721,36.059-58.811,48.3-76.108h2.528c14.769,20.491,46.437,68.259,51.493,74.778
		l-24.482,13.438c-3.592-5.455-9.713-15.7-10.645-17.031l-35.526,1.729c-0.666,1.064-5.056,10.112-7.717,15.435L393.212,353.178z
		 M452.289,331.756c-3.326-6.52-7.717-13.971-9.979-18.628c-2.794,5.455-6.919,13.306-9.979,19.56L452.289,331.756z"/>
	<path fill="#FFFFFF" d="M504.709,279.065c5.455,0.665,67.327,2.528,73.049,2.927l0.931,1.464
		c-3.06,5.189-36.856,57.348-38.32,58.812c7.052,0,32.865-0.399,36.325-0.799l-0.533,21.289c-3.06,0-70.785-1.197-76.107-1.197
		l-0.932-1.597c5.588-7.983,36.457-56.017,39.118-59.343c-4.124,0-30.47-1.064-33.929-1.064L504.709,279.065z"/>
	<path fill="#FFFFFF" d="M588.398,324.704c0-21.821,16.897-45.239,52.689-45.239c29.007,0,46.836,14.902,46.836,39.783
		c0,17.031-11.975,44.176-52.689,44.176C602.768,363.424,588.398,342.8,588.398,324.704z M656.922,320.047
		c0-14.37-6.387-22.221-17.43-22.221c-13.04,0-20.092,11.576-20.092,25.148c0,14.902,7.85,22.087,17.164,22.087
		C648.938,345.062,656.922,336.679,656.922,320.047z"/>
	<path fill="#FFFFFF" d="M701.226,361.561c0.799-7.983,3.726-65.996,4.923-81.031l2.129-0.666
		c17.031,11.043,54.154,36.99,56.683,39.651c0-6.12-0.267-33.93-0.133-38.853l26.079,0.532c-0.799,8.915-1.996,25.68-2.928,42.312
		c-0.932,16.366-1.862,32.333-2.129,39.784l-2.129,0.532c-12.241-7.318-51.492-35.792-56.416-39.783c0,5.854,0,34.993,0.133,38.32
		L701.226,361.561z"/>
	<path fill="#FFFFFF" d="M840.133,327.365c0,11.31,0.399,31.534,0.532,34.195h-29.538c0.133-4.923,0.266-31.401,0.266-34.328V314.99
		c0-1.995-0.266-31.002-0.266-33.796h29.538c-0.133,2.129-0.532,20.357-0.532,33.93V327.365z"/>
	<path fill="#FFFFFF" d="M852.503,353.178c3.593-5.721,36.059-58.811,48.3-76.108h2.527c14.77,20.491,46.438,68.259,51.493,74.778
		l-24.482,13.438c-3.593-5.455-9.713-15.7-10.645-17.031l-35.526,1.729c-0.665,1.064-5.056,10.112-7.717,15.435L852.503,353.178z
		 M911.58,331.756c-3.326-6.52-7.717-13.971-9.979-18.628c-2.794,5.455-6.919,13.306-9.979,19.56L911.58,331.756z"/>
</g>
<g>
	<g enable-background="new    ">
		<path fill="#382A07" d="M62.734,366.656c7.868-10.627,80.512-108.354,105.95-140.235h2.623
			c31.47,37.716,102.016,125.857,113.031,137.735l-51.926,24.38c-7.605-10.211-20.98-28.756-23.603-32.298l-78.938,3.542
			c-2.098,2.917-11.539,19.17-17.309,28.964L62.734,366.656z M190.976,327.065c-7.343-11.877-17.309-26.672-22.029-35.215
			c-6.294,10.002-15.473,25.421-22.292,37.09L190.976,327.065z"/>
	</g>
	<path fill="none" stroke="#16150F" stroke-miterlimit="10" d="M244.264,377.223c-2.364-11.088-7.193-17.063-17.229-24.656
		c-11.248-8.511-11.541-18.336-10.771-30.146"/>
	<path fill="none" stroke="#16150F" stroke-miterlimit="10" d="M250.41,353.891c-0.316-11.912-17.424-18.068-19.806-29.299"/>
	<path fill="none" stroke="#16150F" stroke-miterlimit="10" d="M99.476,352.806c6.007-6.71,12.082-13.197,15.686-20.979
		c2.839-6.124,4.672-11.35,11.633-15.374"/>
	<path fill="none" stroke="#16150F" stroke-miterlimit="10" d="M141.137,301.799c0.691-7.438,1.066-17.639,8.878-22.789"/>
	<path fill="none" stroke="#16150F" stroke-miterlimit="10" d="M102.891,382.107c7.061-6.775,0.252-18.723,10.928-22.247"/>
	<path fill="none" stroke="#16150F" stroke-miterlimit="10" d="M70.79,367.456c9.174-2.131,8.362-14.252,14.342-19.534"/>
	<path fill="none" stroke="#16150F" stroke-miterlimit="10" d="M272.265,369.085c-3.148-2.801-5.08-8.135-4.781-11.937"/>
	<path fill="none" stroke="#16150F" stroke-miterlimit="10" d="M200.554,293.663c-4.753-3.687-9.736-9.261-10.243-14.653"/>
	<path fill="none" stroke="#16150F" stroke-miterlimit="10" d="M162.991,352.263c0.167-5.331-0.666-10.866-0.683-16.278"/>
	<path fill="none" stroke="#16150F" stroke-miterlimit="10" d="M188.944,351.175c5.879-2.893,1.215-8.538-1.366-11.936"/>
	<path fill="none" stroke="#16150F" stroke-miterlimit="10" d="M139.77,341.412c-1.352-3.285-1.287-8.124,0-11.397"/>
	<path fill="#564B12" d="M272.949,284.438"/>
	<ellipse fill="none" stroke="#564B12" stroke-miterlimit="10" cx="201.921" cy="285.505" rx="87.421" ry="96.567"/>
	<path fill="none" stroke="#564B12" stroke-miterlimit="10" d="M48.936,285.506c0-53.335,39.139-96.573,87.419-96.573"/>
	<path fill="none" stroke="#564B12" stroke-miterlimit="10" d="M136.355,188.933c48.28,0,87.42,43.237,87.42,96.573
		c0,53.329-39.138,96.568-87.42,96.568c-48.28,0-87.419-43.239-87.419-96.568"/>
	<ellipse fill="#2C660A" cx="81.718" cy="224.747" rx="73.759" ry="59.69"/>
	<ellipse fill="#2C660A" cx="141.82" cy="190.02" rx="73.759" ry="59.689"/>
	<ellipse fill="#2C660A" cx="229.24" cy="198.702" rx="73.759" ry="59.69"/>
	<ellipse fill="#2C660A" cx="262.021" cy="233.428" rx="73.76" ry="59.689"/>
</g>
</svg>
