<?xml version="1.0" encoding="utf-8"?>
<!-- Generator: Adobe Illustrator 16.0.0, SVG Export Plug-In . SVG Version: 6.00 Build 0)  -->
<!DOCTYPE svg PUBLIC "-//W3C//DTD SVG 1.1//EN" "http://www.w3.org/Graphics/SVG/1.1/DTD/svg11.dtd">
<svg version="1.1" id="Layer_1" xmlns="http://www.w3.org/2000/svg" xmlns:xlink="http://www.w3.org/1999/xlink" x="0px" y="0px"
	 width="168.907px" height="166.386px" viewBox="0 0 168.907 166.386" enable-background="new 0 0 168.907 166.386"
	 xml:space="preserve">
<circle fill="#FDE876" cx="84.336" cy="83.664" r="79.412"/>
<g>
	<g>
		<g>
			<g>
				<rect x="69.163" y="122.956" fill="#723E2B" width="13.824" height="14.974"/>
			</g>
		</g>
		<g>
			<g>
				<rect x="89.567" y="122.956" fill="#8E6451" width="13.827" height="14.974"/>
			</g>
		</g>
		<g>
			<g>
				<path fill="#F5C799" d="M76.075,132.701c-5.383,0-9.745,4.362-9.745,9.746h19.489C85.819,137.063,81.457,132.701,76.075,132.701
					z"/>
			</g>
		</g>
		<g>
			<g>
				<path fill="#F5C799" d="M96.479,132.701c-5.381,0-9.745,4.362-9.745,9.746h19.493
					C106.228,137.063,101.863,132.701,96.479,132.701z"/>
			</g>
		</g>
	</g>
	<g>
		<g>
			<g>
				<path fill="#723E2B" d="M64.28,101.167c-0.719,2.211-1.12,4.564-1.12,7.016c0,12.516,10.146,22.661,22.659,22.661v-18.957
					C76.716,111.887,68.76,107.593,64.28,101.167z"/>
			</g>
		</g>
		<g>
			<g>
				<path fill="#8E6451" d="M85.819,111.887v18.957c12.515,0,22.661-10.146,22.661-22.661c0-2.451-0.4-4.805-1.118-7.016
					C102.88,107.593,94.924,111.887,85.819,111.887z"/>
			</g>
		</g>
		<g>
			<g>
				<path fill="#723E2B" d="M85.819,85.524c-10.061,0-18.583,6.563-21.539,15.643c4.479,6.426,12.436,10.72,21.539,10.72
					c9.104,0,17.061-4.294,21.543-10.72C104.403,92.088,95.883,85.524,85.819,85.524z"/>
			</g>
		</g>
	</g>
	<g>
		<g>
			<g>
				<g>
					<g>
						<circle fill="#723E2B" cx="48.809" cy="68.12" r="12.005"/>
					</g>
				</g>
				<g>
					<g>
						<circle fill="#D76C79" cx="48.809" cy="68.12" r="7.824"/>
					</g>
				</g>
			</g>
			<g>
				<g>
					<g>
						<circle fill="#8E6451" cx="121.653" cy="68.12" r="12.006"/>
					</g>
				</g>
				<g>
					<g>
						<circle fill="#D76C79" cx="121.651" cy="68.12" r="7.824"/>
					</g>
				</g>
			</g>
		</g>
		<g>
			<g>
				<g>
					<path fill="#723E2B" d="M90.897,18.203c0.242,1.438-0.242,5.067-3.729,9.019c-1.537,1.741-1.397,1.387-1.985,2.263
						c-0.589,0.879-1.315,1.664-2.201,2.344c-0.901,0.667-1.204,1.061-2.634,1.373c-0.247-1.442-0.435-1.719-0.535-3.506
						c-0.062-1.113,0.187-2.672,0.777-3.546c0.594-0.875,1.251-1.804,2.674-2.774C84.169,22.707,89.614,20.631,90.897,18.203z"/>
				</g>
			</g>
			<g>
				<g>
					<path fill="#723E2B" d="M95.305,22.081c0.245,1.437-0.798,7.957-3.435,8.954c-0.294,1.074-2.023,0.6-2.611,1.479
						c-0.586,0.878-1.316,1.662-2.201,2.341c-0.899,0.667-1.925,1.253-3.355,1.564c-0.247-1.44-0.094-2.61,0.188-3.697
						c0.296-1.074,0.657-3.978,3.547-5.257C91.624,25.611,93.396,24.51,95.305,22.081z"/>
				</g>
			</g>
		</g>
		<g>
			<g>
				<g>
					<path fill="#723E2B" d="M48.503,66.565c0,20.608,16.708,37.316,37.316,37.316V29.249
						C65.211,29.249,48.503,45.956,48.503,66.565z"/>
				</g>
			</g>
			<g>
				<g>
					<path fill="#8E6451" d="M123.136,66.565c0-20.609-16.706-37.316-37.316-37.316v74.633
						C106.43,103.882,123.136,87.174,123.136,66.565z"/>
				</g>
			</g>
		</g>
		<g>
			<g>
				<g>
					<path fill="#F5C799" d="M118.736,63.803c0-9.237-7.49-16.727-16.729-16.727c-7.804,0-14.338,5.351-16.188,12.577
						c-1.848-7.227-8.384-12.577-16.187-12.577c-9.238,0-16.729,7.489-16.729,16.727c0,9.239,7.49,16.728,16.729,16.728v8.633
						c0,9.239,7.489,16.727,16.728,16.727s16.728-7.487,16.728-16.727v-8.688C111.819,79.917,118.736,72.677,118.736,63.803z"/>
				</g>
			</g>
			<g>
				<g>
					<g>
						<circle fill="#411611" cx="81.504" cy="80.261" r="2.427"/>
					</g>
				</g>
				<g>
					<g>
						<circle fill="#411611" cx="90.135" cy="80.261" r="2.428"/>
					</g>
				</g>
			</g>
			<g>
				<g>
					<g>
						<g>
							<path fill="#411611" d="M75.16,65.424c0,3.313-2.686,5.998-5.997,5.998c-3.314,0-6.003-2.686-6.003-5.998
								c0-3.314,2.688-6.003,6.003-6.003C72.475,59.421,75.16,62.109,75.16,65.424z"/>
						</g>
					</g>
				</g>
				<g>
					<g>
						<g>
							<circle fill="#411611" cx="102.48" cy="65.424" r="6"/>
						</g>
					</g>
				</g>
				<g>
					<g>
						<circle fill="#FFFFFF" cx="71.187" cy="63.421" r="2"/>
					</g>
				</g>
				<g>
					<g>
						<circle fill="#FFFFFF" cx="104.479" cy="63.421" r="2.001"/>
					</g>
				</g>
			</g>
			<g>
				<g>
					<g>
						<g>
							<path fill="#411611" d="M85.819,100.564c-6.091,0-8.519-3.426-8.618-3.571c-0.175-0.253-0.111-0.599,0.141-0.773
								c0.253-0.175,0.599-0.109,0.771,0.144c0.099,0.135,2.243,3.091,7.706,3.091c5.016,0,7.715-3.104,7.74-3.137
								c0.2-0.232,0.551-0.261,0.783-0.063c0.232,0.2,0.262,0.55,0.062,0.783C94.282,97.182,91.344,100.564,85.819,100.564z"/>
						</g>
					</g>
				</g>
			</g>
		</g>
	</g>
	<g>
		<g>
			<g>
				<path fill="#F5C799" d="M96.815,121.538c-3.129,0-5.666-2.536-5.666-5.666c0-3.129,2.537-5.665,5.666-5.665"/>
			</g>
		</g>
		<g>
			<g>
				<path fill="#F5C799" d="M74.825,121.538c3.128,0,5.664-2.536,5.664-5.666c0-3.129-2.536-5.665-5.664-5.665"/>
			</g>
		</g>
	</g>
	<g>
		<g>
			<g>
				<path fill="#723E2B" d="M69.524,109.725c-1.788,0-3.236,1.449-3.236,3.236c0,5.468-4.449,9.917-9.916,9.917
					c-5.468,0-9.913-4.449-9.913-9.917c0-3.698,2.039-6.925,5.049-8.631c-2.676-1.979-2.229-5.123-1.956-6.253
					c-5.637,2.594-9.568,8.282-9.568,14.884c0,9.036,7.351,16.392,16.389,16.392c9.036,0,16.391-7.355,16.391-16.392
					C72.763,111.174,71.312,109.725,69.524,109.725z"/>
			</g>
		</g>
		<g>
			<g>
				<path fill="#F5C799" d="M51.508,104.33c1.438-0.814,3.095-1.283,4.864-1.283c1.787,0,3.238-1.45,3.238-3.238
					s-1.451-3.238-3.238-3.238c-2.435,0-4.74,0.55-6.82,1.507C49.278,99.207,48.832,102.352,51.508,104.33z"/>
			</g>
		</g>
	</g>
</g>
</svg>
