<?xml version="1.0" encoding="utf-8"?>
<!-- Generator: Adobe Illustrator 16.0.0, SVG Export Plug-In . SVG Version: 6.00 Build 0)  -->
<!DOCTYPE svg PUBLIC "-//W3C//DTD SVG 1.1//EN" "http://www.w3.org/Graphics/SVG/1.1/DTD/svg11.dtd">
<svg version="1.1" id="Layer_1" xmlns="http://www.w3.org/2000/svg" xmlns:xlink="http://www.w3.org/1999/xlink" x="0px" y="0px"
	 width="251.26px" height="247.059px" viewBox="0 0 251.26 247.059" enable-background="new 0 0 251.26 247.059"
	 xml:space="preserve">
<circle fill="#FDE876" cx="126.068" cy="122.647" r="116.807"/>
<g>
	<path fill="#619D5B" d="M203.398,100.464c-0.158-4.32-0.759-5.51-2.475-9.33c-0.721-1.604-2.021-2.957-3.185-4.241
		c-0.88-0.971-1.925-1.84-3.051-2.556c0.944-2.138,1.461-4.461,1.461-6.827c0-4.469-1.796-8.805-4.954-11.962l-1.207-1.208
		c-3.158-3.157-7.494-4.954-11.961-4.954c-0.242,0-0.481,0.025-0.721,0.036c-2.111-6.944-8.635-12.118-16.194-12.118
		c-1.079,0-2.135,0.109-3.161,0.313c0.03-7.511-4.795-15.043-14.481-15.043c-4.527,0-7.979,1.655-10.382,4.175
		c-2.404-2.519-5.855-4.175-10.381-4.175c-4.779,0-8.363,1.84-10.773,4.601c-2.415-2.762-6.008-4.601-10.789-4.601
		c-4.456,0-7.871,1.605-10.27,4.059c-3.888-0.029-7.786,1.407-10.7,4.32c-2.453,2.453-3.854,5.609-4.22,8.869
		c-3.82,0.411-7.435,2.119-10.169,4.853c-3.157,3.158-4.954,7.493-4.954,11.961v1.208c0,1.548,0.229,3.077,0.642,4.549
		c-6.636,2.296-11.516,8.653-11.516,15.99c0,5.651,2.897,10.719,7.256,13.804c-2.265,2.876-3.631,6.48-3.631,10.359
		c0,8.018,5.817,14.873,13.396,16.53c-0.842,1.986-1.315,4.157-1.315,6.426c0,7.753,5.448,14.407,12.662,16.336
		c1.928,7.213,8.582,12.661,16.335,12.661c0.823,0,1.627-0.082,2.422-0.2c-0.001,0.066-0.006,0.132-0.006,0.199
		c0,9.221,7.694,16.915,16.916,16.915c3.932,0,7.578-1.407,10.472-3.728c1.994,0.841,4.17,1.311,6.442,1.311
		c4.983,0,9.51-2.26,12.627-5.782c1.757,0.61,3.61,0.951,5.496,0.951c3.556,0,7.017-1.154,9.878-3.21
		c6.091-1.955,10.759-7.326,11.689-13.773c0.019-0.019,0.041-0.035,0.06-0.054c1.552-1.554,2.771-3.394,3.614-5.391
		c2.721-0.791,5.232-2.249,7.259-4.274c2.339-2.34,3.925-5.325,4.593-8.531c0.031-0.027,0.058-0.049,0.089-0.077
		c1.354-1.196,2.933-3.588,3.827-5.716c6.341-2.454,10.944-8.637,10.944-15.76c0-2.242-0.464-4.392-1.284-6.366
		C202.048,108.062,203.535,104.22,203.398,100.464z"/>
	<path fill="#7C4C33" d="M150.98,144.824c9.708,0.444,20.294-9.821,19.334-19.701c-0.18-1.855-3.102-1.873-2.919,0
		c0.81,8.33-8.067,16.996-16.25,16.782c0.244-5.1,0.229-10.228-0.018-15.315c-0.11-2.27,0.123-7.267-2.33-8.563
		c-1.662-0.879-3.138,1.641-1.473,2.519c1.367,0.724,0.956,7.534,1.005,8.93c0.087,2.569,0.081,5.143,0.027,7.715
		c-4.429-0.049-7.095-4.134-8.374-8.078c-0.577-1.78-3.395-1.021-2.813,0.775c1.648,5.09,5.366,10.253,11.107,10.226
		c-0.034,0.993-0.072,1.986-0.117,2.979c-0.575,12.921-7.09,23.75-19.407,28.151c0.056-1.622,0.096-3.239,0.096-4.849
		c0-21.936,2.911-48.333-4.917-68.705c-3.787,14.563-3.315,32.429-4.682,47.864c-0.002,0-0.006-0.003-0.008-0.003
		c-15.748-0.949-19.84-14.651-21.212-28.56c-0.001-0.021-0.006-0.039-0.007-0.06c-0.627-6.391-0.682-12.821-1.033-18.073
		c-0.124-1.867-3.043-1.879-2.918,0c0.325,4.876,0.482,10.499,0.985,16.167c-3.769-1.399-7.153-3.529-8.845-7.418
		c-0.749-1.722-3.263-0.235-2.519,1.473c2.143,4.925,6.802,7.53,11.684,9.138c0.926,8.042,2.776,15.897,6.997,21.605
		c-3.842,2.519-8.741,2.262-13.021,1.038c-1.812-0.517-2.582,2.298-0.775,2.813c5.122,1.463,11.197,1.669,15.693-1.592
		c3.457,3.559,8.19,5.919,14.736,6.364c-2.192,25.21,2,55.368-5.722,79.304c0,0,4.145,3.429,5.836,3.89
		c2.22,0.604,7.354,1.583,7.632-1.119c0.775-7.561,0.87-37.392,1.869-56.158c3.575-1.151,6.778-2.833,9.587-4.924
		c0.111,0.05,0.205,0.112,0.345,0.137c7.818,1.367,15.554-2.146,19.522-9.061c0.938-1.637-1.584-3.107-2.52-1.474
		c-2.968,5.172-8.518,8.23-14.384,7.917c5.675-5.44,9.138-12.919,9.767-21.431C150.957,145.293,150.964,145.057,150.98,144.824z"/>
</g>
</svg>
